# xmcd CD database file
#
# Track frame offsets:
#	150
#	12737
#	27575
#	47950
#	62237
#	76492
#	94400
#	111420
#	127250
#	145587
#	161792
#	174397
#	188105
#
# Disc length: 2598 seconds
#
# Revision: 0
# Processed by: cddbd v1.5.1PL0 Copyright (c) Steve Scherf et al.
# Submitted via: CDex 1.51
#
DISCID=c30a240d
DTITLE=Chili - Die Erste
DYEAR=1997
DGENRE=Country
TTITLE0=Keine Hektik
TTITLE1=Armes Schwein- Blues
TTITLE2=Moment mal
TTITLE3=Spieglein, Spieglein
TTITLE4=Wenn diese Woche ein Ende hat
TTITLE5=Mach mich an
TTITLE6=Ich bin der Boss ..
TTITLE7=Kann es sein
TTITLE8=Ich liebe das einfache Leben
TTITLE9=Ganz gleich wie's weiter geht
TTITLE10=Lass uns Freunde sein
TTITLE11=Der Nachtaktive
TTITLE12=Nimm mich nochmal
EXTD=YEAR: 1997
EXTT0=
EXTT1=
EXTT2=
EXTT3=
EXTT4=
EXTT5=
EXTT6=
EXTT7=
EXTT8=
EXTT9=
EXTT10=
EXTT11=
EXTT12=
PLAYORDER=
